<svg id="Brand" xmlns="http://www.w3.org/2000/svg" viewBox="0 0 1470.59 1635.48"><defs><style>.cls-1{fill:#eb5f4a;}</style></defs><path class="cls-1" d="M2000.18,2812.39v250H1891.5c0,94.18,0,115.92,92.37,154v101.43c-144.9-29-219.16-92.38-219.16-242.72V2812.39Zm309.73,0v250h-112.3c0,99.62,10.87,117.73,99.62,152.15v96c-52.53-3.62-103.25-18.11-146.72-50.71-61.58-47.1-76.07-96-76.07-172.08V2812.39Z" transform="translate(-1764.71 -1682.26)"/><rect class="cls-1" x="754.75" y="1127.83" width="715.84" height="249.96"/><rect class="cls-1" x="1764.71" y="2373.87" width="1470.59" height="249.96" transform="translate(3235.29 3315.44) rotate(-180)"/><rect class="cls-1" x="1764.71" y="1937.65" width="715.84" height="249.96" transform="translate(2480.55 2443.01) rotate(-180)"/><path class="cls-1" d="M2999.82,2187.61v-250H3108.5c0-94.18,0-115.92-92.37-154V1682.26c144.9,29,219.16,92.38,219.16,242.72v262.63Zm-309.73,0v-250h112.3c0-99.62-10.87-117.73-99.62-152.15v-96c52.53,3.62,103.25,18.11,146.72,50.71,61.58,47.1,76.07,96,76.07,172.08v275.31Z" transform="translate(-1764.71 -1682.26)"/></svg>